<svg xmlns="http://www.w3.org/2000/svg" width="83" height="83" viewBox="0 0 83 83" fill="none"><rect x="14" y="43" width="55" height="29" fill="#1C1C5E"></rect><path fill-rule="evenodd" clip-rule="evenodd" d="M5.58042 81.8652H39.5547C39.5547 80.214 38.1967 78.8562 36.5456 78.8562H8.5895V40.8499H5.58026L5.58042 81.8652ZM25.2488 31.9305C24.7852 32.197 24.193 32.037 23.9267 31.5734C23.6602 31.1098 23.8202 30.5176 24.2838 30.2512L27.4209 28.4401C27.8846 28.1736 28.4768 28.3336 28.7431 28.7973C29.0096 29.2609 28.8496 29.8531 28.386 30.1194L25.2488 31.9305ZM57.7472 10.9288C58.2109 10.6602 58.8047 10.8184 59.0733 11.2822C59.3419 11.746 59.1837 12.3396 58.7199 12.6082L55.5829 14.4195C55.1191 14.6881 54.5255 14.5299 54.2568 14.0661C53.9882 13.6023 54.1464 13.0086 54.6102 12.74L57.7472 10.9288ZM60.8223 20.4569C61.3595 20.4569 61.7949 20.8923 61.7949 21.4296C61.7949 21.9668 61.3595 22.4022 60.8223 22.4022H57.1999C56.6627 22.4022 56.2273 21.9668 56.2273 21.4296C56.2273 20.8923 56.6627 20.4569 57.1999 20.4569H60.8223ZM58.7199 30.2511C59.1837 30.5197 59.3419 31.1133 59.0733 31.5771C58.8047 32.0408 58.211 32.199 57.7472 31.9305L54.6102 30.1194C54.1466 29.8508 53.9882 29.2572 54.2568 28.7934C54.5255 28.3297 55.1191 28.1715 55.5829 28.44L58.7199 30.2511ZM40.5273 2.10742C40.5273 1.57019 40.9627 1.13477 41.5 1.13477C42.0372 1.13477 42.4726 1.57019 42.4726 2.10742V5.72976C42.4726 6.26699 42.0372 6.70241 41.5 6.70241C40.9627 6.70241 40.5273 6.26699 40.5273 5.72976V2.10742ZM30.9992 5.17858C30.7327 4.71495 30.8927 4.12277 31.3563 3.85642C31.8199 3.58991 32.4121 3.74991 32.6785 4.21355L34.4895 7.35069C34.7561 7.81432 34.5961 8.40651 34.1324 8.67285C33.6686 8.93936 33.0766 8.77936 32.8101 8.31572L30.9992 5.17858ZM50.3215 4.21355C50.588 3.74991 51.18 3.58991 51.6436 3.85642C52.1073 4.12293 52.2673 4.71495 52.0008 5.17858L50.1897 8.31572C49.9232 8.77936 49.3312 8.93936 48.8675 8.67285C48.4039 8.40634 48.2439 7.81432 48.5104 7.35069L50.3215 4.21355ZM24.2801 12.6082C23.8163 12.3396 23.6582 11.746 23.9267 11.2822C24.1953 10.8185 24.7889 10.6603 25.2527 10.9288L28.3899 12.74C28.8535 13.0086 29.0117 13.6023 28.7433 14.0661C28.4746 14.5297 27.881 14.6879 27.4172 14.4195L24.2801 12.6082ZM22.1777 22.4024C21.6404 22.4024 21.205 21.967 21.205 21.4297C21.205 20.8925 21.6404 20.4571 22.1777 20.4571H25.8C26.3372 20.4571 26.7727 20.8925 26.7727 21.4297C26.7727 21.967 26.3372 22.4024 25.8 22.4024H22.1777ZM36.1761 39.16H46.8238C47.2469 39.16 47.5932 38.8138 47.5932 38.3906V35.8855H35.4069V38.3906C35.4069 38.8138 35.753 39.16 36.1761 39.16ZM37.6497 43.4557C37.3015 43.4557 37.0165 43.1707 37.0165 42.8225V41.1051H45.9836V42.8225C45.9836 43.1707 45.6986 43.4557 45.3504 43.4557H37.6497ZM35.4068 33.9402H38.4719V24.0115H37.4728C35.8471 24.0115 34.5286 22.6929 34.5286 21.0671C34.5286 18.4536 37.7039 17.1345 39.5548 18.9853C40.5121 19.9425 40.4172 20.8813 40.4172 22.0662H42.086V21.0671C42.086 19.4411 43.4046 18.1229 45.0302 18.1229C47.6436 18.1229 48.9632 21.2978 47.112 23.1489C46.1548 24.1063 45.2162 24.0115 44.0313 24.0115V33.9402H47.593C48.5461 31.5207 49.8462 29.7031 51.5161 27.0552C52.667 25.2304 53.3331 23.0691 53.3331 20.7523C53.3331 14.217 48.0352 8.9191 41.4998 8.9191C34.9644 8.9191 29.6665 14.217 29.6665 20.7523C29.6665 23.0691 30.3326 25.2304 31.4836 27.0552C33.1536 29.7031 34.4539 31.5207 35.4068 33.9402ZM42.0862 33.9402H40.4174V24.0115H42.0862V33.9402ZM44.0315 21.0671C44.0315 20.1787 45.11 19.7337 45.737 20.3608C46.3642 20.988 45.9184 22.0662 45.0305 22.0662H44.0316L44.0315 21.0671ZM37.473 22.0662C36.585 22.0662 36.1395 20.9877 36.7665 20.3608C37.3936 19.7339 38.4721 20.1789 38.4721 21.0672V22.0663L37.473 22.0662ZM42.4726 45.401H45.3504C46.7723 45.401 47.9289 44.2443 47.9289 42.8225V40.8697C48.8766 40.4456 49.5385 39.4939 49.5385 38.3904V35.8952H72.4653V76.9105H46.4547C44.8276 76.9105 43.3774 77.7055 42.4728 78.926L42.4726 45.401ZM46.8844 70.0809H67.0808C67.6159 70.0809 68.0498 69.647 68.0498 69.1121C68.0498 68.5771 67.6159 68.1432 67.0808 68.1432H46.8844C46.3493 68.1432 45.9155 68.577 45.9155 69.1119C45.9155 69.6469 46.3493 70.0809 46.8844 70.0809ZM46.8844 63.7263H67.0808C67.6159 63.7263 68.0498 63.2925 68.0498 62.7576C68.0498 62.2226 67.6159 61.7886 67.0808 61.7886H46.8844C46.3493 61.7886 45.9155 62.2224 45.9155 62.7574C45.9155 63.2924 46.3493 63.7263 46.8844 63.7263ZM46.8844 57.3718H67.0808C67.6159 57.3718 68.0498 56.9382 68.0498 56.403C68.0498 55.8679 67.6159 55.4341 67.0808 55.4341H46.8844C46.3493 55.4341 45.9155 55.8678 45.9155 56.4029C45.9155 56.938 46.3493 57.3718 46.8844 57.3718ZM46.8844 51.0173H67.0808C67.6159 51.0173 68.0498 50.5835 68.0498 50.0485C68.0498 49.5136 67.6159 49.0796 67.0808 49.0796H46.8844C46.3493 49.0796 45.9155 49.5134 45.9155 50.0484C45.9155 50.5833 46.3493 51.0173 46.8844 51.0173ZM52.3726 44.6628H67.0808C67.6159 44.6628 68.0498 44.229 68.0498 43.694C68.0498 43.159 67.6159 42.7251 67.0808 42.7251H52.3726C51.8375 42.7251 51.4037 43.1589 51.4037 43.6938C51.4037 44.2288 51.8375 44.6628 52.3726 44.6628ZM40.5275 45.401V78.926C39.6229 77.7055 38.1727 76.9107 36.5457 76.9107H10.5348V35.8954H33.4615V38.3906C33.4615 39.4941 34.1233 40.446 35.071 40.8699V42.8225C35.071 44.2443 36.2277 45.401 37.6495 45.401H40.5275ZM15.9194 44.6628C15.3843 44.6628 14.9505 44.2289 14.9505 43.6938C14.9505 43.1587 15.3843 42.7249 15.9194 42.7249H30.6276C31.1627 42.7249 31.5965 43.1587 31.5965 43.6938C31.5965 44.2289 31.1627 44.6628 30.6276 44.6628H15.9194ZM15.9194 70.0807C15.3843 70.0807 14.9505 69.6469 14.9505 69.1118C14.9505 68.5766 15.3843 68.1428 15.9194 68.1428H36.1157C36.6508 68.1428 37.0846 68.5766 37.0846 69.1118C37.0846 69.6469 36.6508 70.0807 36.1157 70.0807H15.9194ZM15.9194 63.7262C15.3843 63.7262 14.9505 63.2924 14.9505 62.7572C14.9505 62.2221 15.3843 61.7883 15.9194 61.7883H36.1157C36.6508 61.7883 37.0846 62.2221 37.0846 62.7572C37.0846 63.2924 36.6508 63.7262 36.1157 63.7262H15.9194ZM15.9194 57.3716C15.3843 57.3716 14.9505 56.9378 14.9505 56.4029C14.9505 55.8679 15.3843 55.434 15.9194 55.434H36.1157C36.6508 55.434 37.0846 55.8679 37.0846 56.4029C37.0846 56.9378 36.6508 57.3718 36.1157 57.3718L15.9194 57.3716ZM15.9194 51.0171C15.3843 51.0171 14.9505 50.5833 14.9505 50.0484C14.9505 49.5134 15.3843 49.0794 15.9194 49.0794H36.1157C36.6508 49.0794 37.0846 49.5132 37.0846 50.0484C37.0846 50.5835 36.6508 51.0173 36.1157 51.0173L15.9194 51.0171ZM77.4197 81.8649V40.8496H74.4104V78.8558H46.4545C44.8033 78.8558 43.4453 80.2138 43.4453 81.8649H77.4197Z" fill="#F7911E"></path></svg>