<svg xmlns="http://www.w3.org/2000/svg" width="83" height="83" viewBox="0 0 83 83" fill="none"><path d="M51.875 67.3986C50.5574 67.9277 49.1957 68.3713 47.7873 68.6955L47.2166 76.1292C47.144 77.0785 46.3503 77.8125 45.3984 77.8125H37.599C36.6471 77.8125 35.856 77.0785 35.7834 76.1317L35.2128 68.6981C32.1573 67.9952 29.3016 66.7891 26.7208 65.1732L21.0535 70.0312C20.3298 70.6512 19.2534 70.6097 18.579 69.9353L13.0647 64.421C12.3903 63.7466 12.3514 62.6702 12.9688 61.9465L17.8268 56.2792C16.2135 53.6984 15.0074 50.8427 14.3019 47.7873L6.86825 47.2166C5.92153 47.144 5.1875 46.3503 5.1875 45.3984V37.599C5.1875 36.6471 5.92153 35.856 6.86825 35.7834L14.3019 35.2128C15.0048 32.1573 16.2109 29.3016 17.8268 26.7208L12.9713 21.0535C12.3514 20.3324 12.3929 19.2534 13.0647 18.5816L18.579 13.0673C19.2508 12.3955 20.3298 12.354 21.0535 12.9713L26.7208 17.8294C29.3016 16.2161 32.1573 15.01 35.2128 14.3045L35.7834 6.87084C35.856 5.92153 36.6497 5.1875 37.6016 5.1875H45.401C46.3529 5.1875 47.144 5.92153 47.2166 6.86825L47.2503 7.30141C45.2376 10.3906 44.0938 14.0322 44.0938 17.8839C44.0938 21.0016 44.8304 23.9896 46.1765 26.656C44.7007 26.1891 43.1289 25.9375 41.5 25.9375C32.9043 25.9375 25.9375 32.9043 25.9375 41.5C25.9375 50.0957 32.9043 57.0625 41.5 57.0625C45.4918 57.0625 49.1204 55.5477 51.875 53.0759V67.3986Z" fill="#F7911E"></path><path d="M70.0312 30.5776V71.328C70.0312 74.91 67.1288 77.8124 63.5469 77.8124C59.9649 77.8124 57.0625 74.91 57.0625 71.328V30.5776C52.4456 28.2147 49.2812 23.424 49.2812 17.8812C49.2812 12.5251 52.2381 7.86673 56.606 5.42861C56.8057 5.31967 57.0625 5.47529 57.0625 5.70354V20.7499L63.5469 23.3436L70.0312 20.7499V5.70354C70.0312 5.47529 70.288 5.31967 70.4878 5.4312C74.8556 7.86932 77.8125 12.5251 77.8125 17.8838C77.8125 23.424 74.6481 28.2173 70.0312 30.5776Z" fill="#1C1C5E"></path></svg>