<svg xmlns="http://www.w3.org/2000/svg" width="83" height="83" viewBox="0 0 83 83" fill="none"><path d="M68.4361 56.1417C63.0022 53.5091 53.4572 58.9689 45.7797 63.3653C42.745 65.1161 39.8659 66.7631 38.6209 67.0225C37.5445 67.23 36.6886 67.1003 35.9753 66.6075C35.1194 66.0239 34.6266 65.0383 34.3542 64.2991C34.873 64.1434 35.5084 64.0267 36.2606 64.0008C43.7695 63.7155 48.4772 60.9401 48.555 56.7642C48.5809 54.8059 47.8158 53.7166 47.1544 53.1459C45.65 51.8361 43.6009 52.1214 43.3934 52.1473C43.3286 52.1603 36.9091 53.0681 33.0444 52.5753L32.6942 52.5234C28.8295 52.0306 25.1723 51.5508 21.567 56.6345C18.8566 60.4862 14.3305 59.9156 14.1489 59.8897C13.7728 59.8248 13.3967 59.9416 13.1114 60.188C12.8261 60.4344 12.6705 60.7975 12.6705 61.1736V76.8398C12.6705 77.4883 13.1633 78.0459 13.8247 78.1237L33.3167 80.2895C33.9781 80.3673 34.6395 80.4062 35.3139 80.4062C38.8284 80.4062 42.317 79.3817 45.2869 77.4364L68.7733 62.1073C69.8108 61.42 70.4073 60.2269 70.3295 58.9819C70.2517 57.7498 69.5384 56.6864 68.4361 56.1417Z" fill="#1C1C5E"></path><path d="M43.8473 39.9696C51.888 39.9696 58.4372 33.3945 58.4372 25.302C58.4372 17.2095 51.888 10.6213 43.8473 10.6213C35.8067 10.6213 29.2575 17.2095 29.2575 25.302C29.2575 33.3945 35.8067 39.9696 43.8473 39.9696ZM46.3114 27.5845C45.9353 27.3121 45.1702 26.9101 43.575 26.5729C41.902 26.2098 40.683 25.7299 39.84 25.0945C38.8803 24.3812 38.3875 23.3437 38.3875 22.0727C38.3875 20.8018 38.9062 19.7513 39.9437 18.9084C40.657 18.3248 41.5389 17.9487 42.5505 17.7931V16.3276C42.5505 15.6013 43.1341 15.0307 43.8473 15.0307C44.5606 15.0307 45.1442 15.6013 45.1442 16.3276V17.806C46.1817 17.9876 47.0766 18.3637 47.7898 18.9732C48.7236 19.7643 49.2423 20.7629 49.3072 21.9171C49.3461 22.6434 48.8014 23.2529 48.0881 23.2918C47.3878 23.3307 46.7523 22.786 46.7134 22.0727C46.6875 21.6318 46.5059 21.2817 46.1169 20.9445C45.5852 20.5035 44.807 20.2831 43.7825 20.2831C42.8358 20.2831 42.0966 20.4906 41.5908 20.9056C41.0461 21.3465 40.9813 21.7485 40.9813 22.0727C40.9813 22.6045 41.1369 22.8379 41.3833 23.0195C41.7464 23.2918 42.5245 23.6809 44.1197 24.031C45.7927 24.3942 47.0117 24.874 47.8547 25.5095C48.8014 26.2098 49.3072 27.2602 49.3072 28.5312C49.3072 29.8021 48.7884 30.8526 47.7509 31.6956C47.0377 32.2792 46.1558 32.6423 45.1442 32.8109V34.2763C45.1442 34.9896 44.5606 35.5732 43.8473 35.5732C43.1341 35.5732 42.5505 34.9896 42.5505 34.2763V32.7979C41.513 32.6163 40.6181 32.2273 39.9048 31.6307C38.9581 30.8396 38.4523 29.841 38.3875 28.6738C38.3486 27.9606 38.8933 27.351 39.6066 27.3121C40.3198 27.2732 40.9294 27.8049 40.9813 28.5312C41.0072 28.9721 41.1758 29.3093 41.5778 29.6465C42.1095 30.1004 42.8877 30.3209 43.9122 30.3209C44.8589 30.3209 45.5981 30.1134 46.1039 29.6984C46.6486 29.2445 46.7134 28.8554 46.7134 28.5312C46.7134 27.9995 46.5448 27.766 46.3114 27.5845Z" fill="#F7911E"></path><path d="M19.8162 28.7777L21.2947 27.7142C22.5137 39.0878 32.1495 47.9973 43.8473 47.9973C56.3622 47.9973 66.5556 37.8039 66.5556 25.2891C66.5556 12.7742 56.3622 2.59375 43.8473 2.59375C34.7433 2.59375 26.5341 8.00172 22.9547 16.3795C22.6823 17.0409 22.9806 17.8061 23.642 18.0784C24.2905 18.3637 25.0556 18.0655 25.3409 17.4041C28.5183 9.98594 35.7808 5.1875 43.8473 5.1875C54.9356 5.1875 63.9619 14.2137 63.9619 25.302C63.9619 36.3903 54.9356 45.4166 43.8473 45.4166C33.6539 45.4166 25.2242 37.7909 23.9144 27.9606L25.0556 28.7906C25.2891 28.9592 25.5484 29.037 25.8078 29.037C26.2098 29.037 26.6119 28.8555 26.8583 28.4923C27.2733 27.9087 27.1436 27.1047 26.56 26.6767L23.1881 24.2516C22.7342 23.9273 22.1247 23.9273 21.6708 24.2516L18.2989 26.6767C17.7153 27.0917 17.5856 27.9087 18.0006 28.4923C18.4156 29.0759 19.2327 29.2056 19.8162 28.7906V28.7777Z" fill="#F7911E"></path><circle cx="44" cy="25" r="15" fill="white"></circle><g clip-path="url(#clip0_1378_74)"><path d="M44 12C36.8152 12 31 17.8143 31 25C31 32.1848 36.8143 38 44 38C51.1848 38 57 32.1857 57 25C57 17.8153 51.1857 12 44 12ZM51.6471 18.8824H45.1226C45.6891 19.5145 46.0831 20.304 46.2301 21.1765H51.6471V22.7059H46.23C45.8649 24.8731 43.9753 26.5294 41.7059 26.5294H39.76L46.8045 32.8423L45.7838 33.9813L37.3462 26.42C37.0974 26.2009 37.0062 25.8483 37.1195 25.5352C37.2354 25.2151 37.5419 25 37.8824 25H41.7059C43.1285 25 44.3275 24.0237 44.6679 22.7059H37.1176V21.1765H44.6679C44.3275 19.8586 43.1286 18.8824 41.7059 18.8824H37.1176V17.3529H51.6471V18.8824Z" fill="#F7911E"></path></g><defs><clipPath id="clip0_1378_74"><rect width="26" height="26" fill="white" transform="translate(31 12)"></rect></clipPath></defs></svg>