<svg xmlns="http://www.w3.org/2000/svg" width="83" height="83" viewBox="0 0 83 83" fill="none"><g clip-path="url(#clip0_1378_66)"><path d="M61.1089 37.8817C61.2469 37.8817 61.3844 37.8836 61.5224 37.8861L61.5579 37.8867C62.3323 37.9007 63.1004 37.9507 63.861 38.0336V9.79305C63.861 4.39342 59.4675 0 54.0679 0H11.5769C6.17662 0 1.7832 4.39342 1.7832 9.79305V66.1216C1.7832 71.5219 6.17662 75.9153 11.5763 75.9153H39.9454C37.4973 71.981 36.2131 67.4875 36.2131 62.7914C36.2131 49.0558 47.3809 37.8817 61.1089 37.8817ZM36.9052 15.9899H51.4178C52.7609 15.9899 53.8494 17.0785 53.8494 18.4216C53.8494 19.7647 52.7609 20.8532 51.4178 20.8532H36.9052C35.5627 20.8532 34.4736 19.7647 34.4736 18.4216C34.4736 17.0785 35.5627 15.9899 36.9052 15.9899ZM36.9052 25.7171H51.4178C52.7609 25.7171 53.8494 26.8057 53.8494 28.1488C53.8494 29.4919 52.7609 30.5804 51.4178 30.5804H36.9052C35.5627 30.5804 34.4736 29.4919 34.4736 28.1488C34.4736 26.8057 35.5627 25.7171 36.9052 25.7171ZM28.739 59.9247H14.2264C12.8833 59.9247 11.7947 58.8362 11.7947 57.4931C11.7947 56.1506 12.8833 55.0615 14.2264 55.0615H28.739C30.0814 55.0615 31.1706 56.1506 31.1706 57.4931C31.1706 58.8362 30.0814 59.9247 28.739 59.9247ZM28.739 50.0348H14.2264C12.8833 50.0348 11.7947 48.9463 11.7947 47.6032C11.7947 46.2601 12.8833 45.1715 14.2264 45.1715H28.739C30.0814 45.1715 31.1706 46.2601 31.1706 47.6032C31.1706 48.9463 30.0814 50.0348 28.739 50.0348ZM28.739 40.3076H14.2264C12.8833 40.3076 11.7947 39.2191 11.7947 37.876C11.7947 36.5329 12.8833 35.4443 14.2264 35.4443H28.739C30.0814 35.4443 31.1706 36.5329 31.1706 37.876C31.1706 39.2191 30.0814 40.3076 28.739 40.3076ZM28.739 30.5804H14.2264C12.8833 30.5804 11.7947 29.4919 11.7947 28.1488C11.7947 26.8057 12.8833 25.7171 14.2264 25.7171H28.739C30.0814 25.7171 31.1706 26.8057 31.1706 28.1488C31.1706 29.4919 30.0814 30.5804 28.739 30.5804ZM28.739 20.8532H14.2264C12.8833 20.8532 11.7947 19.7647 11.7947 18.4216C11.7947 17.0785 12.8833 15.9899 14.2264 15.9899H28.739C30.0814 15.9899 31.1706 17.0785 31.1706 18.4216C31.1706 19.7647 30.0814 20.8532 28.739 20.8532ZM34.4736 37.876C34.4736 36.5329 35.5627 35.4443 36.9052 35.4443H43.8949C45.238 35.4443 46.3266 36.5329 46.3266 37.876C46.3266 39.2191 45.238 40.3076 43.8949 40.3076H36.9052C35.5627 40.3076 34.4736 39.2191 34.4736 37.876Z" fill="#F7911E"></path><path d="M75.5081 48.6232C71.7758 44.8251 66.791 42.6809 61.4724 42.5872L61.4375 42.5866C61.328 42.5847 61.2184 42.5828 61.1089 42.5828C49.9734 42.5828 40.9142 51.6482 40.9142 62.7913C40.9142 67.2171 42.3188 71.4199 44.9752 74.9464C48.831 80.0649 54.7113 82.9999 61.1089 82.9999C72.2444 82.9999 81.3035 73.9345 81.3035 62.7913C81.3035 57.4569 79.2455 52.4252 75.5081 48.6232ZM69.7374 59.5061L62.0258 69.1193C61.5465 69.7165 60.841 70.0299 60.1274 70.0299C59.6315 70.0299 59.1326 69.8786 58.702 69.567L52.9502 65.3997C51.863 64.6119 51.6198 63.0915 52.4082 62.0036C53.1959 60.9163 54.7163 60.6732 55.8036 61.4615L59.6809 64.2706L65.9443 56.4627C66.7846 55.4154 68.3145 55.2476 69.3625 56.0879C70.4099 56.9282 70.5777 58.4587 69.7374 59.5061Z" fill="#1C1C5E"></path></g><defs><clipPath id="clip0_1378_66"><rect width="83" height="83" fill="white"></rect></clipPath></defs></svg>